<?xml version="1.0" encoding="utf-8"?>
<!-- Generator: Adobe Illustrator 27.0.1, SVG Export Plug-In . SVG Version: 6.00 Build 0)  -->
<svg version="1.1" id="Layer_1" xmlns="http://www.w3.org/2000/svg" xmlns:xlink="http://www.w3.org/1999/xlink" x="0px" y="0px"
	 viewBox="0 0 512 512" style="enable-background:new 0 0 512 512;" xml:space="preserve">
<style type="text/css">
	.st0{fill:#FFFFFF;}
</style>
<path class="st0" d="M220.6,121.2L271.1,96H448v96H333.2c-21.9-15.1-48.5-24-77.2-24s-55.2,8.9-77.2,24H64v-64h128
	C201.9,128,211.7,125.7,220.6,121.2z M0,128v288c0,35.3,28.7,64,64,64h384c35.3,0,64-28.7,64-64V96c0-35.3-28.7-64-64-64H271.1
	c-9.9,0-19.7,2.3-28.6,6.8L192,64h-32V48c0-8.8-7.2-16-16-16H80c-8.8,0-16,7.2-16,16v16C28.7,64,0,92.7,0,128z M344,304
	c0,48.6-39.4,88-88,88s-88-39.4-88-88s39.4-88,88-88S344,255.4,344,304z"/>
</svg>
